<svg width="21" height="20" viewBox="0 0 21 20" fill="none" xmlns="http://www.w3.org/2000/svg">
<path d="M8.83325 10.834C9.19113 11.3124 9.64772 11.7083 10.172 11.9947C10.6964 12.2812 11.2762 12.4516 11.8721 12.4942C12.4681 12.5369 13.0662 12.4509 13.626 12.2421C14.1858 12.0333 14.6942 11.7065 15.1166 11.284L17.6166 8.78396C18.3756 7.99811 18.7956 6.9456 18.7861 5.85312C18.7766 4.76063 18.3384 3.71558 17.5658 2.94304C16.7933 2.17051 15.7482 1.73231 14.6558 1.72281C13.5633 1.71332 12.5108 2.1333 11.7249 2.89229L10.2916 4.31729" stroke="#2B4CD2" stroke-width="2" stroke-linecap="round" stroke-linejoin="round"/>
<path d="M12.1666 9.16702C11.8087 8.68858 11.3521 8.2927 10.8278 8.00623C10.3035 7.71977 9.72367 7.54942 9.12771 7.50674C8.53176 7.46406 7.9336 7.55004 7.3738 7.75887C6.814 7.96769 6.30566 8.29446 5.88326 8.71702L3.38326 11.217C2.62426 12.0029 2.20429 13.0554 2.21378 14.1479C2.22327 15.2403 2.66148 16.2854 3.43401 17.0579C4.20655 17.8305 5.2516 18.2687 6.34408 18.2782C7.43657 18.2877 8.48908 17.8677 9.27492 17.1087L10.6999 15.6837" stroke="#2B4CD2" stroke-width="2" stroke-linecap="round" stroke-linejoin="round"/>
</svg>
