<svg width="54" height="54" viewBox="0 0 54 54" fill="none" xmlns="http://www.w3.org/2000/svg">
<path d="M16.236 1H37.764L53 16.236V37.764L37.764 53H16.236L1 37.764V16.236L16.236 1Z" fill="#AF3B3B" stroke="#E8C0C1" stroke-linecap="round" stroke-linejoin="round"/>
<path d="M27.5128 25.4375H25.0241C24.9787 25.1155 24.8859 24.8295 24.7457 24.5795C24.6056 24.3258 24.4257 24.1098 24.206 23.9318C23.9863 23.7538 23.7325 23.6174 23.4446 23.5227C23.1605 23.428 22.8518 23.3807 22.5185 23.3807C21.9162 23.3807 21.3916 23.5303 20.9446 23.8295C20.4976 24.125 20.151 24.5568 19.9048 25.125C19.6586 25.6894 19.5355 26.375 19.5355 27.1818C19.5355 28.0114 19.6586 28.7083 19.9048 29.2727C20.1548 29.8371 20.5033 30.2633 20.9503 30.5511C21.3973 30.839 21.9143 30.983 22.5014 30.983C22.831 30.983 23.1359 30.9394 23.4162 30.8523C23.7003 30.7652 23.9522 30.6383 24.1719 30.4716C24.3916 30.3011 24.5734 30.0947 24.7173 29.8523C24.8651 29.6098 24.9673 29.3333 25.0241 29.0227L27.5128 29.0341C27.4484 29.5682 27.2874 30.0833 27.0298 30.5795C26.776 31.072 26.4332 31.5133 26.0014 31.9034C25.5734 32.2898 25.062 32.5966 24.4673 32.8239C23.8764 33.0473 23.2079 33.1591 22.4616 33.1591C21.4238 33.1591 20.4957 32.9242 19.6776 32.4545C18.8632 31.9848 18.2192 31.3049 17.7457 30.4148C17.276 29.5246 17.0412 28.447 17.0412 27.1818C17.0412 25.9129 17.2798 24.8333 17.7571 23.9432C18.2344 23.053 18.8821 22.375 19.7003 21.9091C20.5185 21.4394 21.4389 21.2045 22.4616 21.2045C23.1359 21.2045 23.7609 21.2992 24.3366 21.4886C24.9162 21.678 25.4295 21.9545 25.8764 22.3182C26.3234 22.678 26.687 23.1193 26.9673 23.642C27.2514 24.1648 27.4332 24.7633 27.5128 25.4375ZM29.277 33V21.3636H33.8679C34.7467 21.3636 35.4967 21.5208 36.1179 21.8352C36.7429 22.1458 37.2183 22.5871 37.544 23.1591C37.8736 23.7273 38.0384 24.3958 38.0384 25.1648C38.0384 25.9375 37.8717 26.6023 37.5384 27.1591C37.205 27.7121 36.7221 28.1364 36.0895 28.4318C35.4607 28.7273 34.6993 28.875 33.8054 28.875H30.7315V26.8977H33.4077C33.8774 26.8977 34.2675 26.8333 34.5781 26.7045C34.8887 26.5758 35.1198 26.3826 35.2713 26.125C35.4266 25.8674 35.5043 25.5473 35.5043 25.1648C35.5043 24.7784 35.4266 24.4527 35.2713 24.1875C35.1198 23.9223 34.8868 23.7216 34.5724 23.5852C34.2618 23.4451 33.8698 23.375 33.3963 23.375H31.7372V33H29.277ZM35.5611 27.7045L38.4531 33H35.7372L32.9077 27.7045H35.5611Z" fill="white"/>
</svg>
