<svg width="21" height="21" viewBox="0 0 21 21" fill="none" xmlns="http://www.w3.org/2000/svg">
<path d="M8.14286 18.1429H2.42857C2.04969 18.1429 1.68633 17.9923 1.41842 17.7244C1.15051 17.4565 1 17.0932 1 16.7143V2.42857C1 2.04969 1.15051 1.68633 1.41842 1.41842C1.68633 1.15051 2.04969 1 2.42857 1H18.1429C18.5217 1 18.8851 1.15051 19.153 1.41842C19.4209 1.68633 19.5714 2.04969 19.5714 2.42857V9.57143" stroke="white" stroke-width="1.5" stroke-linecap="round" stroke-linejoin="round"/>
<path d="M1 5.28516H19.5714" stroke="white" stroke-width="1.5" stroke-linecap="round" stroke-linejoin="round"/>
<path d="M13.8571 17.428C15.8295 17.428 17.4285 15.829 17.4285 13.8566C17.4285 11.8841 15.8295 10.2852 13.8571 10.2852C11.8846 10.2852 10.2856 11.8841 10.2856 13.8566C10.2856 15.829 11.8846 17.428 13.8571 17.428Z" stroke="white" stroke-width="1.5" stroke-linecap="round" stroke-linejoin="round"/>
<path d="M16.3857 16.3848L19.5715 19.5705" stroke="white" stroke-width="1.5" stroke-linecap="round" stroke-linejoin="round"/>
</svg>
