<svg width="108" height="52" viewBox="0 0 108 52" fill="none" xmlns="http://www.w3.org/2000/svg">
<path d="M35.37 4.3335H72.63L99 17.0302V34.9702L72.63 47.6668H35.37L9 34.9702V17.0302L35.37 4.3335Z" fill="#2B4CD2" stroke="#8284D5" stroke-linecap="round" stroke-linejoin="round"/>
<path d="M24.4588 25.3032H22.5923C22.5582 25.0617 22.4886 24.8473 22.3835 24.6598C22.2784 24.4694 22.1435 24.3075 21.9787 24.174C21.8139 24.0404 21.6236 23.9382 21.4077 23.8671C21.1946 23.7961 20.9631 23.7606 20.7131 23.7606C20.2614 23.7606 19.8679 23.8728 19.5327 24.0973C19.1974 24.3188 18.9375 24.6427 18.7528 25.0688C18.5682 25.4921 18.4759 26.0063 18.4759 26.6115C18.4759 27.2336 18.5682 27.7563 18.7528 28.1796C18.9403 28.6029 19.2017 28.9225 19.5369 29.1384C19.8722 29.3544 20.2599 29.4623 20.7003 29.4623C20.9474 29.4623 21.1761 29.4296 21.3864 29.3643C21.5994 29.299 21.7884 29.2038 21.9531 29.0788C22.1179 28.9509 22.2543 28.7961 22.3622 28.6143C22.473 28.4325 22.5497 28.2251 22.5923 27.9921L24.4588 28.0007C24.4105 28.4012 24.2898 28.7876 24.0966 29.1598C23.9063 29.5291 23.6491 29.86 23.3253 30.1527C23.0043 30.4424 22.6207 30.6725 22.1747 30.843C21.7315 31.0106 21.2301 31.0944 20.6705 31.0944C19.892 31.0944 19.196 30.9183 18.5824 30.566C17.9716 30.2137 17.4886 29.7038 17.1335 29.0362C16.7812 28.3686 16.6051 27.5603 16.6051 26.6115C16.6051 25.6598 16.7841 24.8501 17.142 24.1825C17.5 23.5149 17.9858 23.0063 18.5994 22.6569C19.2131 22.3046 19.9034 22.1285 20.6705 22.1285C21.1761 22.1285 21.6449 22.1995 22.0767 22.3416C22.5114 22.4836 22.8963 22.691 23.2315 22.9637C23.5668 23.2336 23.8395 23.5646 24.0497 23.9566C24.2628 24.3487 24.3991 24.7975 24.4588 25.3032ZM25.782 30.9751V22.2478H29.2251C29.8842 22.2478 30.4467 22.3657 30.9126 22.6015C31.3814 22.8345 31.7379 23.1654 31.9822 23.5944C32.2294 24.0206 32.353 24.522 32.353 25.0987C32.353 25.6782 32.228 26.1768 31.978 26.5944C31.728 27.0092 31.3658 27.3274 30.8913 27.549C30.4197 27.7706 29.8487 27.8813 29.1783 27.8813H26.8729V26.3984H28.88C29.2322 26.3984 29.5249 26.3501 29.7578 26.2535C29.9908 26.1569 30.1641 26.012 30.2777 25.8188C30.3942 25.6257 30.4524 25.3856 30.4524 25.0987C30.4524 24.8089 30.3942 24.5646 30.2777 24.3657C30.1641 24.1669 29.9893 24.0163 29.7536 23.914C29.5206 23.8089 29.2266 23.7563 28.8714 23.7563H27.6271V30.9751H25.782ZM30.495 27.0035L32.6641 30.9751H30.6271L28.505 27.0035H30.495ZM37.9386 30.9751H35.9613L38.9741 22.2478H41.3519L44.3604 30.9751H42.3832L40.1971 24.2421H40.1289L37.9386 30.9751ZM37.815 27.5447H42.4854V28.985H37.815V27.5447ZM48.0295 31.1029C47.359 31.1029 46.7823 30.9609 46.2994 30.6768C45.8192 30.3899 45.4499 29.9921 45.1914 29.4836C44.9357 28.9751 44.8079 28.3899 44.8079 27.7279C44.8079 27.0575 44.9371 26.4694 45.1957 25.9637C45.457 25.4552 45.8278 25.0589 46.3079 24.7748C46.788 24.4879 47.359 24.3444 48.021 24.3444C48.592 24.3444 49.092 24.4481 49.521 24.6555C49.9499 24.8629 50.2894 25.1541 50.5394 25.5291C50.7894 25.9041 50.9272 26.3444 50.9528 26.8501H49.2397C49.1914 26.5234 49.0636 26.2606 48.8562 26.0617C48.6516 25.86 48.3832 25.7592 48.0508 25.7592C47.7695 25.7592 47.5238 25.8359 47.3136 25.9893C47.1062 26.1399 46.9442 26.36 46.8278 26.6498C46.7113 26.9396 46.6531 27.2904 46.6531 27.7024C46.6531 28.12 46.7099 28.4751 46.8235 28.7677C46.94 29.0603 47.1033 29.2833 47.3136 29.4367C47.5238 29.5902 47.7695 29.6669 48.0508 29.6669C48.2582 29.6669 48.4442 29.6242 48.609 29.539C48.7766 29.4538 48.9144 29.3302 49.0224 29.1683C49.1332 29.0035 49.2056 28.8061 49.2397 28.5759H50.9528C50.9244 29.0759 50.788 29.5163 50.5437 29.897C50.3022 30.2748 49.9684 30.5703 49.5423 30.7833C49.1161 30.9964 48.6119 31.1029 48.0295 31.1029ZM55.0724 31.1029C54.402 31.1029 53.8253 30.9609 53.3423 30.6768C52.8622 30.3899 52.4929 29.9921 52.2344 29.4836C51.9787 28.9751 51.8509 28.3899 51.8509 27.7279C51.8509 27.0575 51.9801 26.4694 52.2386 25.9637C52.5 25.4552 52.8707 25.0589 53.3509 24.7748C53.831 24.4879 54.402 24.3444 55.0639 24.3444C55.6349 24.3444 56.1349 24.4481 56.5639 24.6555C56.9929 24.8629 57.3324 25.1541 57.5824 25.5291C57.8324 25.9041 57.9702 26.3444 57.9957 26.8501H56.2827C56.2344 26.5234 56.1065 26.2606 55.8991 26.0617C55.6946 25.86 55.4261 25.7592 55.0938 25.7592C54.8125 25.7592 54.5668 25.8359 54.3565 25.9893C54.1491 26.1399 53.9872 26.36 53.8707 26.6498C53.7543 26.9396 53.696 27.2904 53.696 27.7024C53.696 28.12 53.7528 28.4751 53.8665 28.7677C53.983 29.0603 54.1463 29.2833 54.3565 29.4367C54.5668 29.5902 54.8125 29.6669 55.0938 29.6669C55.3011 29.6669 55.4872 29.6242 55.652 29.539C55.8196 29.4538 55.9574 29.3302 56.0653 29.1683C56.1761 29.0035 56.2486 28.8061 56.2827 28.5759H57.9957C57.9673 29.0759 57.831 29.5163 57.5866 29.897C57.3452 30.2748 57.0114 30.5703 56.5852 30.7833C56.1591 30.9964 55.6548 31.1029 55.0724 31.1029ZM62.141 31.1029C61.4677 31.1029 60.8881 30.9666 60.4023 30.6938C59.9194 30.4183 59.5472 30.0291 59.2859 29.5262C59.0245 29.0206 58.8938 28.4225 58.8938 27.7322C58.8938 27.0589 59.0245 26.468 59.2859 25.9595C59.5472 25.4509 59.9151 25.0546 60.3896 24.7706C60.8668 24.4865 61.4265 24.3444 62.0685 24.3444C62.5004 24.3444 62.9023 24.414 63.2745 24.5532C63.6495 24.6896 63.9762 24.8956 64.2546 25.1711C64.5359 25.4467 64.7546 25.7933 64.9109 26.2109C65.0671 26.6257 65.1452 27.1115 65.1452 27.6683V28.1669H59.6183V27.0419H63.4364C63.4364 26.7805 63.3796 26.549 63.266 26.3473C63.1523 26.1456 62.9947 25.9879 62.793 25.8742C62.5941 25.7578 62.3626 25.6995 62.0984 25.6995C61.8228 25.6995 61.5785 25.7634 61.3654 25.8913C61.1552 26.0163 60.9904 26.1853 60.8711 26.3984C60.7518 26.6086 60.6907 26.843 60.6879 27.1015V28.1711C60.6879 28.495 60.7475 28.7748 60.8668 29.0106C60.989 29.2464 61.1609 29.4282 61.3825 29.5561C61.604 29.6839 61.8668 29.7478 62.1708 29.7478C62.3725 29.7478 62.5572 29.7194 62.7248 29.6626C62.8924 29.6058 63.0359 29.5206 63.1552 29.4069C63.2745 29.2933 63.3654 29.1541 63.4279 28.9893L65.1069 29.1001C65.0217 29.5035 64.8469 29.8558 64.5827 30.1569C64.3214 30.4552 63.9833 30.6882 63.5685 30.8558C63.1566 31.0206 62.6808 31.1029 62.141 31.1029ZM66.3299 33.4296V24.4296H68.1197V25.5291H68.2006C68.2802 25.3529 68.3952 25.174 68.5458 24.9921C68.6992 24.8075 68.8981 24.6541 69.1424 24.5319C69.3896 24.4069 69.6964 24.3444 70.0629 24.3444C70.5401 24.3444 70.9805 24.4694 71.3839 24.7194C71.7873 24.9666 72.1097 25.3402 72.3512 25.8402C72.5927 26.3373 72.7134 26.9609 72.7134 27.7109C72.7134 28.441 72.5955 29.0575 72.3597 29.5603C72.1268 30.0603 71.8086 30.4396 71.4052 30.6981C71.0046 30.9538 70.5558 31.0816 70.0586 31.0816C69.7063 31.0816 69.4066 31.0234 69.1594 30.9069C68.9151 30.7904 68.7148 30.6441 68.5586 30.468C68.4023 30.289 68.283 30.1086 68.2006 29.9268H68.1452V33.4296H66.3299ZM68.1069 27.7024C68.1069 28.0916 68.1609 28.4311 68.2688 28.7208C68.3768 29.0106 68.533 29.2365 68.7376 29.3984C68.9421 29.5575 69.1907 29.637 69.4833 29.637C69.7788 29.637 70.0288 29.5561 70.2333 29.3941C70.4379 29.2294 70.5927 29.0021 70.6978 28.7123C70.8058 28.4197 70.8597 28.0831 70.8597 27.7024C70.8597 27.3245 70.8072 26.9921 70.7021 26.7052C70.5969 26.4183 70.4421 26.1938 70.2376 26.0319C70.033 25.87 69.7816 25.789 69.4833 25.789C69.1879 25.789 68.9379 25.8671 68.7333 26.0234C68.5316 26.1796 68.3768 26.4012 68.2688 26.6882C68.1609 26.9751 68.1069 27.3132 68.1069 27.7024ZM77.4052 24.4296V25.7933H73.4634V24.4296H77.4052ZM74.3583 22.8615H76.1737V28.9637C76.1737 29.1313 76.1992 29.262 76.2504 29.3558C76.3015 29.4467 76.3725 29.5106 76.4634 29.5475C76.5572 29.5845 76.6651 29.6029 76.7873 29.6029C76.8725 29.6029 76.9577 29.5958 77.043 29.5816C77.1282 29.5646 77.1935 29.5518 77.239 29.5433L77.5245 30.8941C77.4336 30.9225 77.3058 30.9552 77.141 30.9921C76.9762 31.0319 76.7759 31.0561 76.5401 31.0646C76.1026 31.0816 75.7191 31.0234 75.3896 30.8899C75.0629 30.7563 74.8086 30.549 74.6268 30.2677C74.445 29.9865 74.3555 29.6313 74.3583 29.2024V22.8615ZM81.5004 31.1029C80.8271 31.1029 80.2475 30.9666 79.7617 30.6938C79.2788 30.4183 78.9066 30.0291 78.6452 29.5262C78.3839 29.0206 78.2532 28.4225 78.2532 27.7322C78.2532 27.0589 78.3839 26.468 78.6452 25.9595C78.9066 25.4509 79.2745 25.0546 79.7489 24.7706C80.2262 24.4865 80.7859 24.3444 81.4279 24.3444C81.8597 24.3444 82.2617 24.414 82.6339 24.5532C83.0089 24.6896 83.3356 24.8956 83.614 25.1711C83.8952 25.4467 84.114 25.7933 84.2702 26.2109C84.4265 26.6257 84.5046 27.1115 84.5046 27.6683V28.1669H78.9776V27.0419H82.7958C82.7958 26.7805 82.739 26.549 82.6254 26.3473C82.5117 26.1456 82.354 25.9879 82.1523 25.8742C81.9535 25.7578 81.7219 25.6995 81.4577 25.6995C81.1822 25.6995 80.9379 25.7634 80.7248 25.8913C80.5146 26.0163 80.3498 26.1853 80.2305 26.3984C80.1112 26.6086 80.0501 26.843 80.0472 27.1015V28.1711C80.0472 28.495 80.1069 28.7748 80.2262 29.0106C80.3484 29.2464 80.5202 29.4282 80.7418 29.5561C80.9634 29.6839 81.2262 29.7478 81.5302 29.7478C81.7319 29.7478 81.9165 29.7194 82.0842 29.6626C82.2518 29.6058 82.3952 29.5206 82.5146 29.4069C82.6339 29.2933 82.7248 29.1541 82.7873 28.9893L84.4663 29.1001C84.381 29.5035 84.2063 29.8558 83.9421 30.1569C83.6808 30.4552 83.3427 30.6882 82.9279 30.8558C82.516 31.0206 82.0401 31.1029 81.5004 31.1029ZM88.1012 31.0816C87.604 31.0816 87.1538 30.9538 86.7504 30.6981C86.3498 30.4396 86.0316 30.0603 85.7958 29.5603C85.5629 29.0575 85.4464 28.441 85.4464 27.7109C85.4464 26.9609 85.5671 26.3373 85.8086 25.8402C86.0501 25.3402 86.3711 24.9666 86.7717 24.7194C87.1751 24.4694 87.6168 24.3444 88.0969 24.3444C88.4634 24.3444 88.7688 24.4069 89.0131 24.5319C89.2603 24.6541 89.4592 24.8075 89.6097 24.9921C89.7631 25.174 89.8796 25.3529 89.9592 25.5291H90.0146V22.2478H91.8256V30.9751H90.0359V29.9268H89.9592C89.8739 30.1086 89.7532 30.289 89.5969 30.468C89.4435 30.6441 89.2433 30.7904 88.9961 30.9069C88.7518 31.0234 88.4535 31.0816 88.1012 31.0816ZM88.6765 29.637C88.9691 29.637 89.2163 29.5575 89.418 29.3984C89.6225 29.2365 89.7788 29.0106 89.8867 28.7208C89.9975 28.4311 90.0529 28.0916 90.0529 27.7024C90.0529 27.3132 89.9989 26.9751 89.891 26.6882C89.783 26.4012 89.6268 26.1796 89.4222 26.0234C89.2177 25.8671 88.9691 25.789 88.6765 25.789C88.3782 25.789 88.1268 25.87 87.9222 26.0319C87.7177 26.1938 87.5629 26.4183 87.4577 26.7052C87.3526 26.9921 87.3001 27.3245 87.3001 27.7024C87.3001 28.0831 87.3526 28.4197 87.4577 28.7123C87.5657 29.0021 87.7205 29.2294 87.9222 29.3941C88.1268 29.5561 88.3782 29.637 88.6765 29.637Z" fill="white"/>
</svg>
