<svg width="108" height="52" viewBox="0 0 108 52" fill="none" xmlns="http://www.w3.org/2000/svg">
<path d="M35.371 4.3335H72.631L99.001 17.0302V34.9702L72.631 47.6668H35.371L9.00098 34.9702V17.0302L35.371 4.3335Z" fill="#CCCCCC" stroke="#F0ECEC" stroke-linecap="round" stroke-linejoin="round"/>
<path d="M28.4588 25.0889H26.5923C26.5582 24.8474 26.4886 24.6329 26.3835 24.4454C26.2784 24.2551 26.1435 24.0931 25.9787 23.9596C25.8139 23.8261 25.6236 23.7238 25.4077 23.6528C25.1946 23.5818 24.9631 23.5463 24.7131 23.5463C24.2614 23.5463 23.8679 23.6585 23.5327 23.8829C23.1974 24.1045 22.9375 24.4284 22.7528 24.8545C22.5682 25.2778 22.4759 25.792 22.4759 26.3971C22.4759 27.0193 22.5682 27.542 22.7528 27.9653C22.9403 28.3886 23.2017 28.7082 23.5369 28.9241C23.8722 29.14 24.2599 29.248 24.7003 29.248C24.9474 29.248 25.1761 29.2153 25.3864 29.1499C25.5994 29.0846 25.7884 28.9894 25.9531 28.8644C26.1179 28.7366 26.2543 28.5818 26.3622 28.3999C26.473 28.2181 26.5497 28.0107 26.5923 27.7778L28.4588 27.7863C28.4105 28.1869 28.2898 28.5732 28.0966 28.9454C27.9063 29.3147 27.6491 29.6457 27.3253 29.9383C27.0043 30.2281 26.6207 30.4582 26.1747 30.6286C25.7315 30.7963 25.2301 30.8801 24.6705 30.8801C23.892 30.8801 23.196 30.7039 22.5824 30.3517C21.9716 29.9994 21.4886 29.4894 21.1335 28.8218C20.7812 28.1542 20.6051 27.346 20.6051 26.3971C20.6051 25.4454 20.7841 24.6357 21.142 23.9681C21.5 23.3005 21.9858 22.792 22.5994 22.4426C23.2131 22.0903 23.9034 21.9142 24.6705 21.9142C25.1761 21.9142 25.6449 21.9852 26.0767 22.1272C26.5114 22.2693 26.8963 22.4767 27.2315 22.7494C27.5668 23.0193 27.8395 23.3502 28.0497 23.7423C28.2628 24.1343 28.3991 24.5832 28.4588 25.0889ZM29.782 30.7607V22.0335H33.2251C33.8842 22.0335 34.4467 22.1514 34.9126 22.3872C35.3814 22.6201 35.7379 22.9511 35.9822 23.3801C36.2294 23.8062 36.353 24.3076 36.353 24.8843C36.353 25.4639 36.228 25.9624 35.978 26.3801C35.728 26.7948 35.3658 27.113 34.8913 27.3346C34.4197 27.5562 33.8487 27.667 33.1783 27.667H30.8729V26.184H32.88C33.2322 26.184 33.5249 26.1357 33.7578 26.0392C33.9908 25.9426 34.1641 25.7977 34.2777 25.6045C34.3942 25.4113 34.4524 25.1713 34.4524 24.8843C34.4524 24.5945 34.3942 24.3502 34.2777 24.1514C34.1641 23.9525 33.9893 23.8019 33.7536 23.6997C33.5206 23.5945 33.2266 23.542 32.8714 23.542H31.6271V30.7607H29.782ZM34.495 26.7892L36.6641 30.7607H34.6271L32.505 26.7892H34.495ZM45.1687 24.5434C45.1346 24.1997 44.9883 23.9326 44.7298 23.7423C44.4712 23.5519 44.1204 23.4568 43.6772 23.4568C43.3761 23.4568 43.1218 23.4994 42.9144 23.5846C42.707 23.667 42.5479 23.782 42.4371 23.9298C42.3292 24.0775 42.2752 24.2451 42.2752 24.4326C42.2695 24.5889 42.3022 24.7252 42.3732 24.8417C42.4471 24.9582 42.5479 25.059 42.6758 25.1443C42.8036 25.2267 42.9513 25.2991 43.119 25.3616C43.2866 25.4213 43.4656 25.4724 43.6559 25.515L44.44 25.7025C44.8207 25.7877 45.1701 25.9014 45.4883 26.0434C45.8065 26.1855 46.082 26.3602 46.315 26.5676C46.5479 26.7749 46.7283 27.0193 46.8562 27.3005C46.9869 27.5818 47.0536 27.9042 47.0565 28.2678C47.0536 28.8019 46.9173 29.265 46.6474 29.657C46.3803 30.0463 45.994 30.3488 45.4883 30.5647C44.9854 30.7778 44.3789 30.8843 43.6687 30.8843C42.9641 30.8843 42.3505 30.7764 41.8278 30.5605C41.3079 30.3445 40.9016 30.0249 40.609 29.6017C40.3192 29.1755 40.1673 28.6485 40.1531 28.0207H41.9386C41.9585 28.3133 42.0423 28.5576 42.19 28.7536C42.3406 28.9468 42.5408 29.0931 42.7908 29.1926C43.0437 29.2892 43.3292 29.3374 43.6474 29.3374C43.9599 29.3374 44.2312 29.292 44.4613 29.2011C44.6942 29.1102 44.8746 28.9838 45.0025 28.8218C45.1303 28.6599 45.1942 28.4738 45.1942 28.2636C45.1942 28.0676 45.136 27.9028 45.0195 27.7693C44.9059 27.6357 44.7383 27.5221 44.5167 27.4284C44.2979 27.3346 44.0295 27.2494 43.7113 27.1727L42.761 26.934C42.0252 26.7551 41.4442 26.4752 41.0181 26.0945C40.592 25.7139 40.3803 25.2011 40.3832 24.5562C40.3803 24.0278 40.521 23.5661 40.805 23.1713C41.092 22.7764 41.4854 22.4681 41.9854 22.2465C42.4854 22.0249 43.0536 21.9142 43.69 21.9142C44.3377 21.9142 44.9031 22.0249 45.386 22.2465C45.8718 22.4681 46.2496 22.7764 46.5195 23.1713C46.7894 23.5661 46.9286 24.0235 46.9371 24.5434H45.1687ZM49.9084 28.8772L49.9126 26.6997H50.1768L52.2734 24.2153H54.3572L51.5405 27.5051H51.1101L49.9084 28.8772ZM48.2635 30.7607V22.0335H50.0788V30.7607H48.2635ZM52.3544 30.7607L50.4283 27.9099L51.6385 26.6272L54.4808 30.7607H52.3544ZM55.2479 30.7607V24.2153H57.0632V30.7607H55.2479ZM56.1598 23.3715C55.8899 23.3715 55.6584 23.282 55.4652 23.1031C55.2749 22.9213 55.1797 22.7039 55.1797 22.4511C55.1797 22.2011 55.2749 21.9866 55.4652 21.8076C55.6584 21.6258 55.8899 21.5349 56.1598 21.5349C56.4297 21.5349 56.6598 21.6258 56.8501 21.8076C57.0433 21.9866 57.1399 22.2011 57.1399 22.4511C57.1399 22.7039 57.0433 22.9213 56.8501 23.1031C56.6598 23.282 56.4297 23.3715 56.1598 23.3715ZM58.5174 33.2153V24.2153H60.3072V25.3147H60.3881C60.4677 25.1386 60.5827 24.9596 60.7333 24.7778C60.8867 24.5931 61.0856 24.4397 61.3299 24.3176C61.5771 24.1926 61.8839 24.1301 62.2504 24.1301C62.7276 24.1301 63.168 24.2551 63.5714 24.5051C63.9748 24.7522 64.2972 25.1258 64.5387 25.6258C64.7802 26.123 64.9009 26.7465 64.9009 27.4965C64.9009 28.2267 64.783 28.8431 64.5472 29.346C64.3143 29.846 63.9961 30.2252 63.5927 30.4838C63.1921 30.7394 62.7433 30.8673 62.2461 30.8673C61.8938 30.8673 61.5941 30.809 61.3469 30.6926C61.1026 30.5761 60.9023 30.4298 60.7461 30.2536C60.5898 30.0747 60.4705 29.8943 60.3881 29.7124H60.3327V33.2153H58.5174ZM60.2944 27.488C60.2944 27.8772 60.3484 28.2167 60.4563 28.5065C60.5643 28.7963 60.7205 29.0221 60.9251 29.184C61.1296 29.3431 61.3782 29.4227 61.6708 29.4227C61.9663 29.4227 62.2163 29.3417 62.4208 29.1798C62.6254 29.015 62.7802 28.7877 62.8853 28.498C62.9933 28.2053 63.0472 27.8687 63.0472 27.488C63.0472 27.1102 62.9947 26.7778 62.8896 26.4909C62.7844 26.2039 62.6296 25.9795 62.4251 25.8176C62.2205 25.6556 61.9691 25.5747 61.6708 25.5747C61.3754 25.5747 61.1254 25.6528 60.9208 25.809C60.7191 25.9653 60.5643 26.1869 60.4563 26.4738C60.3484 26.7607 60.2944 27.0988 60.2944 27.488ZM66.1112 33.2153V24.2153H67.9009V25.3147H67.9819C68.0614 25.1386 68.1765 24.9596 68.3271 24.7778C68.4805 24.5931 68.6793 24.4397 68.9237 24.3176C69.1708 24.1926 69.4776 24.1301 69.8441 24.1301C70.3214 24.1301 70.7617 24.2551 71.1651 24.5051C71.5685 24.7522 71.891 25.1258 72.1325 25.6258C72.3739 26.123 72.4947 26.7465 72.4947 27.4965C72.4947 28.2267 72.3768 28.8431 72.141 29.346C71.908 29.846 71.5898 30.2252 71.1864 30.4838C70.7859 30.7394 70.337 30.8673 69.8398 30.8673C69.4876 30.8673 69.1879 30.809 68.9407 30.6926C68.6964 30.5761 68.4961 30.4298 68.3398 30.2536C68.1836 30.0747 68.0643 29.8943 67.9819 29.7124H67.9265V33.2153H66.1112ZM67.8881 27.488C67.8881 27.8772 67.9421 28.2167 68.0501 28.5065C68.158 28.7963 68.3143 29.0221 68.5188 29.184C68.7234 29.3431 68.9719 29.4227 69.2646 29.4227C69.56 29.4227 69.81 29.3417 70.0146 29.1798C70.2191 29.015 70.3739 28.7877 70.479 28.498C70.587 28.2053 70.641 27.8687 70.641 27.488C70.641 27.1102 70.5884 26.7778 70.4833 26.4909C70.3782 26.2039 70.2234 25.9795 70.0188 25.8176C69.8143 25.6556 69.5629 25.5747 69.2646 25.5747C68.9691 25.5747 68.7191 25.6528 68.5146 25.809C68.3129 25.9653 68.158 26.1869 68.0501 26.4738C67.9421 26.7607 67.8881 27.0988 67.8881 27.488ZM76.6879 30.8886C76.0146 30.8886 75.435 30.7522 74.9492 30.4795C74.4663 30.2039 74.0941 29.8147 73.8327 29.3119C73.5714 28.8062 73.4407 28.2082 73.4407 27.5178C73.4407 26.8445 73.5714 26.2536 73.8327 25.7451C74.0941 25.2366 74.462 24.8403 74.9364 24.5562C75.4137 24.2721 75.9734 24.1301 76.6154 24.1301C77.0472 24.1301 77.4492 24.1997 77.8214 24.3389C78.1964 24.4752 78.5231 24.6812 78.8015 24.9568C79.0827 25.2323 79.3015 25.5789 79.4577 25.9965C79.614 26.4113 79.6921 26.8971 79.6921 27.4539V27.9525H74.1651V26.8275H77.9833C77.9833 26.5661 77.9265 26.3346 77.8129 26.1329C77.6992 25.9312 77.5415 25.7735 77.3398 25.6599C77.141 25.5434 76.9094 25.4852 76.6452 25.4852C76.3697 25.4852 76.1254 25.5491 75.9123 25.6769C75.7021 25.8019 75.5373 25.971 75.418 26.184C75.2987 26.3943 75.2376 26.6286 75.2347 26.8872V27.9568C75.2347 28.2806 75.2944 28.5605 75.4137 28.7963C75.5359 29.032 75.7077 29.2139 75.9293 29.3417C76.1509 29.4695 76.4137 29.5335 76.7177 29.5335C76.9194 29.5335 77.104 29.5051 77.2717 29.4482C77.4393 29.3914 77.5827 29.3062 77.7021 29.1926C77.8214 29.0789 77.9123 28.9397 77.9748 28.7749L79.6538 28.8857C79.5685 29.2892 79.3938 29.6414 79.1296 29.9426C78.8683 30.2409 78.5302 30.4738 78.1154 30.6414C77.7035 30.8062 77.2276 30.8886 76.6879 30.8886ZM83.2887 30.8673C82.7915 30.8673 82.3413 30.7394 81.9379 30.4838C81.5373 30.2252 81.2191 29.846 80.9833 29.346C80.7504 28.8431 80.6339 28.2267 80.6339 27.4965C80.6339 26.7465 80.7546 26.123 80.9961 25.6258C81.2376 25.1258 81.5586 24.7522 81.9592 24.5051C82.3626 24.2551 82.8043 24.1301 83.2844 24.1301C83.6509 24.1301 83.9563 24.1926 84.2006 24.3176C84.4478 24.4397 84.6467 24.5931 84.7972 24.7778C84.9506 24.9596 85.0671 25.1386 85.1467 25.3147H85.2021V22.0335H87.0131V30.7607H85.2234V29.7124H85.1467C85.0614 29.8943 84.9407 30.0747 84.7844 30.2536C84.631 30.4298 84.4308 30.5761 84.1836 30.6926C83.9393 30.809 83.641 30.8673 83.2887 30.8673ZM83.864 29.4227C84.1566 29.4227 84.4038 29.3431 84.6055 29.184C84.81 29.0221 84.9663 28.7963 85.0742 28.5065C85.185 28.2167 85.2404 27.8772 85.2404 27.488C85.2404 27.0988 85.1864 26.7607 85.0785 26.4738C84.9705 26.1869 84.8143 25.9653 84.6097 25.809C84.4052 25.6528 84.1566 25.5747 83.864 25.5747C83.5657 25.5747 83.3143 25.6556 83.1097 25.8176C82.9052 25.9795 82.7504 26.2039 82.6452 26.4909C82.5401 26.7778 82.4876 27.1102 82.4876 27.488C82.4876 27.8687 82.5401 28.2053 82.6452 28.498C82.7532 28.7877 82.908 29.015 83.1097 29.1798C83.3143 29.3417 83.5657 29.4227 83.864 29.4227Z" fill="white"/>
</svg>
