<svg width="400" height="400" viewBox="0 0 400 400" fill="none" xmlns="http://www.w3.org/2000/svg">
<rect width="400" height="400" rx="200" fill="#EADDFF"/>
<path fill-rule="evenodd" clip-rule="evenodd" d="M260.002 160C260.002 193.137 233.14 220 200.002 220C166.865 220 140.002 193.137 140.002 160C140.002 126.863 166.865 100 200.002 100C233.14 100 260.002 126.863 260.002 160ZM240.002 160C240.002 182.091 222.094 200 200.002 200C177.911 200 160.002 182.091 160.002 160C160.002 137.909 177.911 120 200.002 120C222.094 120 240.002 137.909 240.002 160Z" fill="#4F378A"/>
<path d="M200.002 250C135.259 250 80.0952 288.284 59.082 341.92C64.201 347.004 69.5934 351.812 75.2353 356.321C90.8827 307.077 139.97 270 200.002 270C260.035 270 309.122 307.077 324.77 356.321C330.412 351.812 335.804 347.004 340.923 341.921C319.91 288.284 264.746 250 200.002 250Z" fill="#4F378A"/>
</svg>
